<svg xmlns="http://www.w3.org/2000/svg" xmlns:xlink="http://www.w3.org/1999/xlink" xml:space="preserve" version="1.1" style="shape-rendering:geometricPrecision;text-rendering:geometricPrecision;image-rendering:optimizeQuality;" viewBox="0 0 5080 6350" x="0px" y="0px" fillRule="evenodd" clipRule="evenodd"><defs><style type="text/css">
   
    .str0 {stroke:black;stroke-width:84.6;stroke-linecap:round;stroke-linejoin:round}
    .str1 {stroke:black;stroke-width:76.2;stroke-linecap:round;stroke-linejoin:round}
    .fil0 {fill:none}
    .fil1 {fill:black}
   
  </style></defs><g><circle class="fil0 str0" cx="2560" cy="2534" r="2328"/><path class="fil1 str1" d="M2555 4433c101,0 201,0 302,-25 108,-17 225,-58 326,-109 109,-58 209,-133 301,-225 84,-92 159,-201 209,-302 50,-108 67,-200 75,-301 9,-108 9,-217 -33,-334 -34,-126 -100,-268 -226,-444 -125,-175 -309,-385 -435,-619 -125,-226 -201,-485 -284,-728 -76,-242 -151,-476 -235,-711 -75,235 -150,469 -234,711 -75,243 -150,494 -276,728 -134,234 -309,444 -435,611 -125,176 -192,318 -226,443 -41,126 -41,235 -33,335 8,100 25,201 75,301 50,100 126,218 209,310 92,92 193,167 301,217 101,59 218,92 327,117 100,17 200,25 292,25z"/></g><text x="0" y="5095" fill="#000000" font-size="5px" font-weight="bold" font-family="'Helvetica Neue', Helvetica, Arial-Unicode, Arial, Sans-serif">Created by Alex Muravev</text><text x="0" y="5100" fill="#000000" font-size="5px" font-weight="bold" font-family="'Helvetica Neue', Helvetica, Arial-Unicode, Arial, Sans-serif">from the Noun Project</text></svg>